<svg xmlns="http://www.w3.org/2000/svg" width="1480" height="1000" viewBox="0 0 1480 1000" font-family="Hiragino Sans GB, PingFang SC, serif">
<rect width="1480" height="1000" fill="#f0e6d0"/>
<path d="M1010,0 H1480 V470 Q1160,540 960,500 Z" fill="#cfd8cf" opacity=".55"/>
<text x="1215" y="120" font-size="15" fill="#2E8FA3" font-style="italic" transform="rotate(12 1215 120)">ὁ πλοῦς τοῦ πυρός · 火神航线</text>
<rect x="14" y="14" width="1452" height="972" fill="none" stroke="#3a3128" stroke-width="3"/><rect x="24" y="24" width="1432" height="952" fill="none" stroke="#3a3128" stroke-width="1"/>
<text x="740.0" y="66" text-anchor="middle" font-size="30" fill="#3a3128" font-weight="700" letter-spacing="6">ΤΟΠΟΓΡΑΦΊΑ · 园体地形志</text>
<text x="740.0" y="92" text-anchor="middle" font-size="13" fill="#6b5f4d">συμπολιτεία chart · 人·机·账同图 · 2026-09-23 (数据驱动: scripts/topography.py)</text>
<path d="M420,300 Q324.2,275.4 250,210" fill="none" stroke="#7a6a52" stroke-width="1.5" opacity=".75" stroke-dasharray="2 5"/><path d="M420,300 Q490.0,217.1 590,175" fill="none" stroke="#7a6a52" stroke-width="1.5" opacity=".75" stroke-dasharray="2 5"/><path d="M420,300 Q527.0,327.2 610,400" fill="none" stroke="#7a6a52" stroke-width="1.5" opacity=".75" stroke-dasharray="2 5"/><path d="M250,560 Q190.4,532.0 150,480" fill="none" stroke="#7a6a52" stroke-width="1.5" opacity=".75" stroke-dasharray="2 5"/><path d="M250,560 Q210.8,617.0 150,650" fill="none" stroke="#7a6a52" stroke-width="1.5" opacity=".75" stroke-dasharray="2 5"/><path d="M250,560 Q319.2,628.0 350,720" fill="none" stroke="#7a6a52" stroke-width="1.5" opacity=".75" stroke-dasharray="2 5"/><path d="M250,560 Q433.8,642.8 560,800" fill="none" stroke="#7a6a52" stroke-width="1.5" opacity=".75" stroke-dasharray="2 5"/><path d="M250,560 Q274.4,485.4 330,430" fill="none" stroke="#7a6a52" stroke-width="1.5" opacity=".75" stroke-dasharray="2 5"/><path d="M760,380 Q950.2,445.4 1090,590" fill="none" stroke="#b05f24" stroke-width="2.2" opacity=".75"/><text x="950.2" y="441.4" font-size="10" fill="#b05f24" text-anchor="middle" font-style="italic">git</text><path d="M760,380 Q626.2,549.6 430,640" fill="none" stroke="#b05f24" stroke-width="2.2" opacity=".75"/><text x="626.2" y="545.6" font-size="10" fill="#b05f24" text-anchor="middle" font-style="italic">git</text><path d="M760,380 Q1031.0,341.4 1290,430" fill="none" stroke="#b05f24" stroke-width="2.2" opacity=".75"/><text x="1031.0" y="337.4" font-size="10" fill="#b05f24" text-anchor="middle" font-style="italic">git</text><path d="M760,380 Q900.6,547.2 950,760" fill="none" stroke="#b05f24" stroke-width="2.2" opacity=".75"/><text x="900.6" y="543.2" font-size="10" fill="#b05f24" text-anchor="middle" font-style="italic">git</text><path d="M1090,590 Q1170.8,486.0 1290,430" fill="none" stroke="#7a6a52" stroke-width="1.5" opacity=".75" stroke-dasharray="2 5"/><path d="M1090,590 Q992.8,779.9 820,905" fill="none" stroke="#7a6a52" stroke-width="1.5" opacity=".75" stroke-dasharray="2 5"/><text x="992.8" y="775.9" font-size="10" fill="#7a6a52" text-anchor="middle" font-style="italic">存目</text><path d="M1290,430 Q1263.6,320.0 1290,210" fill="none" stroke="#2E8FA3" stroke-width="1.5" opacity=".75" stroke-dasharray="7 6"/><text x="1263.6" y="316.0" font-size="10" fill="#2E8FA3" text-anchor="middle" font-style="italic">σπέρματα↔ἔργα</text><path d="M950,760 Q1054.0,444.2 1290,210" fill="none" stroke="#2E8FA3" stroke-width="1.5" opacity=".75" stroke-dasharray="7 6"/><text x="1054.0" y="440.2" font-size="10" fill="#2E8FA3" text-anchor="middle" font-style="italic">分遣</text><path d="M950,760 Q902.4,848.1 820,905" fill="none" stroke="#7a6a52" stroke-width="1.5" opacity=".75" stroke-dasharray="2 5"/><text x="902.4" y="844.1" font-size="10" fill="#7a6a52" text-anchor="middle" font-style="italic">检疫</text><path d="M1180,900 Q1000.6,945.7 820,905" fill="none" stroke="#7a6a52" stroke-width="1.5" opacity=".75" stroke-dasharray="2 5"/><text x="1000.6" y="941.7" font-size="10" fill="#7a6a52" text-anchor="middle" font-style="italic">pin 海关</text><path d="M800,540 Q1005.4,316.2 1290,210" fill="none" stroke="#b05f24" stroke-width="2.2" opacity=".75"/><text x="1005.4" y="312.2" font-size="10" fill="#b05f24" text-anchor="middle" font-style="italic">斥候</text><path d="M800,540 Q951.0,530.2 1090,590" fill="none" stroke="#7a6a52" stroke-width="1.5" opacity=".75" stroke-dasharray="2 5"/><path d="M430,640 Q354.8,547.0 330,430" fill="none" stroke="#7a6a52" stroke-width="1.5" opacity=".75" stroke-dasharray="2 5"/><path d="M430,640 Q514.2,704.4 560,800" fill="none" stroke="#7a6a52" stroke-width="1.5" opacity=".75" stroke-dasharray="2 5"/>
<rect x="384" y="614" width="92" height="52" rx="6" fill="#eadfc4" stroke="#3a3128" stroke-width="1.6"/><path d="M384,614 L430,588 L476,614" fill="#d9c9a3" stroke="#3a3128" stroke-width="1.4"/>
<rect x="708.0" y="350.0" width="104.0" height="60.0" rx="4" fill="#f3ead2" stroke="#3a3128" stroke-width="1.5"/><path d="M704.0,350.0 L760,328.0 L816.0,350.0 Z" fill="#e0d0ac" stroke="#3a3128" stroke-width="1.4"/><rect x="720.0" y="362.0" width="7" height="36.0" fill="#3a3128" opacity=".85"/><rect x="740.0" y="362.0" width="7" height="36.0" fill="#3a3128" opacity=".85"/><rect x="760.0" y="362.0" width="7" height="36.0" fill="#3a3128" opacity=".85"/><rect x="780.0" y="362.0" width="7" height="36.0" fill="#3a3128" opacity=".85"/><rect x="800.0" y="362.0" width="7" height="36.0" fill="#3a3128" opacity=".85"/>
<rect x="1038.0" y="560.0" width="104.0" height="60.0" rx="4" fill="#f3ead2" stroke="#3a3128" stroke-width="1.5"/><path d="M1034.0,560.0 L1090,538.0 L1146.0,560.0 Z" fill="#e0d0ac" stroke="#3a3128" stroke-width="1.4"/><rect x="1050.0" y="572.0" width="7" height="36.0" fill="#3a3128" opacity=".85"/><rect x="1070.0" y="572.0" width="7" height="36.0" fill="#3a3128" opacity=".85"/><rect x="1090.0" y="572.0" width="7" height="36.0" fill="#3a3128" opacity=".85"/><rect x="1110.0" y="572.0" width="7" height="36.0" fill="#3a3128" opacity=".85"/><rect x="1130.0" y="572.0" width="7" height="36.0" fill="#3a3128" opacity=".85"/>
<ellipse cx="420" cy="300" rx="150" ry="95" fill="#e6d9b8" stroke="#3a3128" stroke-width="1.4" stroke-dasharray="4 3"/>
<rect x="192" y="172" width="116" height="76" rx="8" fill="#e7dcc0" stroke="#3a3128" stroke-width="1.2"/><path d="M198,244 q52,-14 104,0" stroke="#3a3128" stroke-width="1.1" fill="none" opacity=".7"/><path d="M202,231 q52,-14 104,0" stroke="#3a3128" stroke-width="1.1" fill="none" opacity=".7"/><path d="M206,218 q52,-14 104,0" stroke="#3a3128" stroke-width="1.1" fill="none" opacity=".7"/><path d="M210,205 q52,-14 104,0" stroke="#3a3128" stroke-width="1.1" fill="none" opacity=".7"/><path d="M214,192 q52,-14 104,0" stroke="#3a3128" stroke-width="1.1" fill="none" opacity=".7"/><path d="M218,179 q52,-14 104,0" stroke="#3a3128" stroke-width="1.1" fill="none" opacity=".7"/>
<rect x="549.44" y="151.6" width="81.12" height="46.800000000000004" rx="4" fill="#f3ead2" stroke="#3a3128" stroke-width="1.5"/><path d="M546.32,151.6 L590,134.44 L633.68,151.6 Z" fill="#e0d0ac" stroke="#3a3128" stroke-width="1.4"/><rect x="558.8" y="160.96" width="7" height="28.080000000000002" fill="#3a3128" opacity=".85"/><rect x="574.4" y="160.96" width="7" height="28.080000000000002" fill="#3a3128" opacity=".85"/><rect x="590.0" y="160.96" width="7" height="28.080000000000002" fill="#3a3128" opacity=".85"/><rect x="605.5999999999999" y="160.96" width="7" height="28.080000000000002" fill="#3a3128" opacity=".85"/><rect x="621.1999999999999" y="160.96" width="7" height="28.080000000000002" fill="#3a3128" opacity=".85"/>
<rect x="569.44" y="376.6" width="81.12" height="46.800000000000004" rx="4" fill="#f3ead2" stroke="#3a3128" stroke-width="1.5"/><path d="M566.32,376.6 L610,359.44 L653.68,376.6 Z" fill="#e0d0ac" stroke="#3a3128" stroke-width="1.4"/><rect x="578.8" y="385.96" width="7" height="28.080000000000002" fill="#3a3128" opacity=".85"/><rect x="594.4" y="385.96" width="7" height="28.080000000000002" fill="#3a3128" opacity=".85"/><rect x="610.0" y="385.96" width="7" height="28.080000000000002" fill="#3a3128" opacity=".85"/><rect x="625.5999999999999" y="385.96" width="7" height="28.080000000000002" fill="#3a3128" opacity=".85"/><rect x="641.1999999999999" y="385.96" width="7" height="28.080000000000002" fill="#3a3128" opacity=".85"/>
<ellipse cx="250" cy="560" rx="150" ry="95" fill="#e6d9b8" stroke="#3a3128" stroke-width="1.4" stroke-dasharray="4 3"/>
<rect x="104" y="454" width="92" height="52" rx="6" fill="#eadfc4" stroke="#3a3128" stroke-width="1.6"/><path d="M104,454 L150,428 L196,454" fill="#d9c9a3" stroke="#3a3128" stroke-width="1.4"/>
<rect x="104" y="624" width="18" height="46" rx="3" fill="#dcd0b2" stroke="#3a3128" stroke-width="1.3"/><rect x="134" y="624" width="18" height="52" rx="3" fill="#dcd0b2" stroke="#3a3128" stroke-width="1.3"/><rect x="164" y="624" width="18" height="46" rx="3" fill="#dcd0b2" stroke="#3a3128" stroke-width="1.3"/>

<rect x="514" y="774" width="18" height="46" rx="3" fill="#dcd0b2" stroke="#3a3128" stroke-width="1.3"/><rect x="544" y="774" width="18" height="52" rx="3" fill="#dcd0b2" stroke="#3a3128" stroke-width="1.3"/><rect x="574" y="774" width="18" height="46" rx="3" fill="#dcd0b2" stroke="#3a3128" stroke-width="1.3"/>
<path d="M1250,240 L1268,180 L1312,180 L1330,240 Z" fill="#e3cfa8" stroke="#8c2f2f" stroke-width="1.6"/><path d="M1282,176 q8,-16 0,-26 q18,10 10,30" fill="#8c2f2f" opacity=".8"/>
<rect x="904" y="734" width="92" height="52" rx="6" fill="#eadfc4" stroke="#3a3128" stroke-width="1.6"/><path d="M904,734 L950,708 L996,734" fill="#d9c9a3" stroke="#3a3128" stroke-width="1.4"/>
<rect x="1244" y="404" width="92" height="52" rx="6" fill="#eadfc4" stroke="#3a3128" stroke-width="1.6"/><path d="M1244,404 L1290,378 L1336,404" fill="#d9c9a3" stroke="#3a3128" stroke-width="1.4"/>
<path d="M1110,940 L1155,860 L1180,y-5 L1208,852 L1250,940 Z" fill="#d9cbaa" stroke="#3a3128" stroke-width="1.4"/><path d="M1155,860 L1168,882 L1142,882 Z" fill="#fff" opacity=".7"/>
<circle cx="820" cy="905" r="34" fill="none" stroke="#2E8FA3" stroke-width="3"/><path d="M820,861 v88 M790,923 q30,26 60,0" stroke="#2E8FA3" stroke-width="3" fill="none"/>

<rect x="314" y="374" width="32" height="112" rx="6" fill="#d8c9a4" stroke="#3a3128" stroke-width="1.8"/><circle cx="330" cy="390" r="8" fill="#b05f24"/>
<text x="430" y="578" text-anchor="middle" font-size="19" fill="#3a3128" font-weight="600">ἡ Ἀγορά</text><text x="430" y="598" text-anchor="middle" font-size="14" fill="#3a3128">市集·碑站</text><text x="430" y="714" text-anchor="middle" font-size="11" fill="#6b5f4d" font-style="italic">Στήλη 发布 · 公开立言</text>
<text x="760" y="318" text-anchor="middle" font-size="19" fill="#3a3128" font-weight="600">ἡ Ἀκαδημία</text><text x="760" y="338" text-anchor="middle" font-size="14" fill="#3a3128">学园</text><text x="760" y="454" text-anchor="middle" font-size="11" fill="#6b5f4d" font-style="italic">Παιδεία·Προσαγωγή·Βιβλιοφυλακή·Τέχνη</text>
<text x="1090" y="528" text-anchor="middle" font-size="19" fill="#3a3128" font-weight="600">Τὸ Ἀρχεῖον</text><text x="1090" y="548" text-anchor="middle" font-size="14" fill="#3a3128">档案馆</text><text x="1090" y="664" text-anchor="middle" font-size="11" fill="#6b5f4d" font-style="italic">Ἐπιστολαί·Γραφαί·Νόμοι·Κατάλογοι</text>
<text x="420" y="300" text-anchor="middle" font-size="19" fill="#3a3128" font-weight="600">ἡ Χώρα</text><text x="420" y="320" text-anchor="middle" font-size="14" fill="#3a3128">本域</text><text x="420" y="220" text-anchor="middle" font-size="11" fill="#6b5f4d" font-style="italic">实验本域</text>
<text x="250" y="148" text-anchor="middle" font-size="19" fill="#3a3128" font-weight="600">οἱ ἀγροί</text><text x="250" y="168" text-anchor="middle" font-size="14" fill="#3a3128">实验田</text><text x="250" y="284" text-anchor="middle" font-size="11" fill="#6b5f4d" font-style="italic">experiments/ 诸案</text>
<text x="590" y="113" text-anchor="middle" font-size="19" fill="#3a3128" font-weight="600">Λύκειον</text><text x="590" y="133" text-anchor="middle" font-size="14" fill="#3a3128">职册署</text><text x="590" y="249" text-anchor="middle" font-size="11" fill="#6b5f4d" font-style="italic">Theuth 席位 · skill 册</text>
<text x="610" y="338" text-anchor="middle" font-size="19" fill="#3a3128" font-weight="600">τὸ σταθμός</text><text x="610" y="358" text-anchor="middle" font-size="14" fill="#3a3128">驿馆</text><text x="610" y="474" text-anchor="middle" font-size="11" fill="#6b5f4d" font-style="italic">mail.sh · 信=md=commit</text>
<text x="250" y="560" text-anchor="middle" font-size="19" fill="#3a3128" font-weight="600">ἡ Ἀτλαντίς</text><text x="250" y="580" text-anchor="middle" font-size="14" fill="#3a3128">碑园</text><text x="250" y="480" text-anchor="middle" font-size="11" fill="#6b5f4d" font-style="italic">账本与正刊</text>
<text x="150" y="418" text-anchor="middle" font-size="19" fill="#3a3128" font-weight="600">Δελτοί</text><text x="150" y="438" text-anchor="middle" font-size="14" fill="#3a3128">台账广场</text><text x="150" y="554" text-anchor="middle" font-size="11" fill="#6b5f4d" font-style="italic">C38-C43 · 事件账</text>
<text x="150" y="588" text-anchor="middle" font-size="19" fill="#3a3128" font-weight="600">Λεξικόν</text><text x="150" y="608" text-anchor="middle" font-size="14" fill="#3a3128">术语碑林</text><text x="150" y="724" text-anchor="middle" font-size="11" fill="#6b5f4d" font-style="italic">凿刻体 · 同架串门</text>
<text x="350" y="658" text-anchor="middle" font-size="19" fill="#3a3128" font-weight="600">ὁδὸς ἱστορική</text><text x="350" y="678" text-anchor="middle" font-size="14" fill="#3a3128">手记驿道</text><text x="350" y="794" text-anchor="middle" font-size="11" fill="#6b5f4d" font-style="italic">iterations/ 23+ 石</text>
<text x="560" y="738" text-anchor="middle" font-size="19" fill="#3a3128" font-weight="600">Ὀνοματολόγιον</text><text x="560" y="758" text-anchor="middle" font-size="14" fill="#3a3128">正名表碑亭</text><text x="560" y="874" text-anchor="middle" font-size="11" fill="#6b5f4d" font-style="italic">名从希腊 · 路不改名</text>
<text x="1290" y="148" text-anchor="middle" font-size="19" fill="#3a3128" font-weight="600">Τὸ Πυραεῖον</text><text x="1290" y="168" text-anchor="middle" font-size="14" fill="#3a3128">火神庙</text><text x="1290" y="284" text-anchor="middle" font-size="11" fill="#6b5f4d" font-style="italic">Kaggle · 26h 额度租火</text>
<text x="950" y="698" text-anchor="middle" font-size="19" fill="#3a3128" font-weight="600">Διόσκουρος β'</text><text x="950" y="718" text-anchor="middle" font-size="14" fill="#3a3128">双子神·乙</text><text x="950" y="834" text-anchor="middle" font-size="11" fill="#6b5f4d" font-style="italic">m1-16g · 三臂在耕</text>
<text x="1290" y="368" text-anchor="middle" font-size="19" fill="#3a3128" font-weight="600">Διόσκουρος α'</text><text x="1290" y="388" text-anchor="middle" font-size="14" fill="#3a3128">双子神·甲</text><text x="1290" y="504" text-anchor="middle" font-size="11" fill="#6b5f4d" font-style="italic">m1pro-32g · 锻造座</text>
<text x="1180" y="838" text-anchor="middle" font-size="19" fill="#3a3128" font-weight="600">βιβλίων ὄρος</text><text x="1180" y="858" text-anchor="middle" font-size="14" fill="#3a3128">书山</text><text x="1180" y="974" text-anchor="middle" font-size="11" fill="#6b5f4d" font-style="italic">iCloud 283 册·假说之矿</text>
<text x="820" y="843" text-anchor="middle" font-size="19" fill="#3a3128" font-weight="600">ὁ λιμήν</text><text x="820" y="863" text-anchor="middle" font-size="14" fill="#3a3128">检疫港</text><text x="820" y="979" text-anchor="middle" font-size="11" fill="#6b5f4d" font-style="italic">external/ · pin 海关</text>
<text x="800" y="478" text-anchor="middle" font-size="19" fill="#3a3128" font-weight="600">ὁδὸς Ἀγγέλων</text><text x="800" y="498" text-anchor="middle" font-size="14" fill="#3a3128">天使道</text><text x="800" y="614" text-anchor="middle" font-size="11" fill="#6b5f4d" font-style="italic">queue.py · 信使与斥候</text>
<text x="330" y="368" text-anchor="middle" font-size="19" fill="#3a3128" font-weight="600">ἡ Στήλη</text><text x="330" y="388" text-anchor="middle" font-size="14" fill="#3a3128">汉谟拉比柱</text><text x="330" y="504" text-anchor="middle" font-size="11" fill="#6b5f4d" font-style="italic">判据先冻 · 刻石为证</text>
<g transform="translate(1360,870)"><path d="M0,-46 L10,-10 L46,0 L10,10 L0,46 L-10,10 L-46,0 L-10,-10 Z" fill="#e0d0ac" stroke="#3a3128"/><text x="0" y="-52" text-anchor="middle" font-size="13" fill="#3a3128">Β</text></g>
</svg>